<svg width="421" height="329" viewBox="0 0 421 329" fill="none" xmlns="http://www.w3.org/2000/svg">
                <path
                    d="M159 69.5C159 74.1944 155.194 78 150.5 78C145.806 78 142 74.1944 142 69.5C142 64.8056 145.806 61 150.5 61C155.194 61 159 64.8056 159 69.5Z"
                    fill="#EAA971" />
                <path
                    d="M193 78.5C193 83.1944 189.194 87 184.5 87C179.806 87 176 83.1944 176 78.5C176 73.8056 179.806 70 184.5 70C189.194 70 193 73.8056 193 78.5Z"
                    fill="#EAA971" />
                <path
                    d="M159 132.5C159 137.194 155.194 141 150.5 141C145.806 141 142 137.194 142 132.5C142 127.806 145.806 124 150.5 124C155.194 124 159 127.806 159 132.5Z"
                    fill="#EAA971" />
                <path
                    d="M176 103.5C176 108.194 172.194 112 167.5 112C162.806 112 159 108.194 159 103.5C159 98.8056 162.806 95 167.5 95C172.194 95 176 98.8056 176 103.5Z"
                    fill="#EAA971" />
                <path
                    d="M215 103.5C215 108.194 211.194 112 206.5 112C201.806 112 198 108.194 198 103.5C198 98.8056 201.806 95 206.5 95C211.194 95 215 98.8056 215 103.5Z"
                    fill="#EAA971" />
                <path
                    d="M237 132.5C237 137.194 233.194 141 228.5 141C223.806 141 220 137.194 220 132.5C220 127.806 223.806 124 228.5 124C233.194 124 237 127.806 237 132.5Z"
                    fill="#EAA971" />
                <path
                    d="M201 126.5C201 131.194 197.194 135 192.5 135C187.806 135 184 131.194 184 126.5C184 121.806 187.806 118 192.5 118C197.194 118 201 121.806 201 126.5Z"
                    fill="#EAA971" />
                <path
                    d="M232 69.5C232 74.1944 228.194 78 223.5 78C218.806 78 215 74.1944 215 69.5C215 64.8056 218.806 61 223.5 61C228.194 61 232 64.8056 232 69.5Z"
                    fill="#EAA971" />
                <path
                    d="M254 103.5C254 108.194 250.194 112 245.5 112C240.806 112 237 108.194 237 103.5C237 98.8056 240.806 95 245.5 95C250.194 95 254 98.8056 254 103.5Z"
                    fill="#EAA971" />
                <path
                    d="M137 103.5C137 108.194 133.194 112 128.5 112C123.806 112 120 108.194 120 103.5C120 98.8056 123.806 95 128.5 95C133.194 95 137 98.8056 137 103.5Z"
                    fill="#EAA971" />
                <path
                    d="M326 120.5C326 125.194 322.194 129 317.5 129C312.806 129 309 125.194 309 120.5C309 115.806 312.806 112 317.5 112C322.194 112 326 115.806 326 120.5Z"
                    fill="#EAA971" />
                <path
                    d="M360 129.5C360 134.194 356.194 138 351.5 138C346.806 138 343 134.194 343 129.5C343 124.806 346.806 121 351.5 121C356.194 121 360 124.806 360 129.5Z"
                    fill="#EAA971" />
                <path
                    d="M326 183.5C326 188.194 322.194 192 317.5 192C312.806 192 309 188.194 309 183.5C309 178.806 312.806 175 317.5 175C322.194 175 326 178.806 326 183.5Z"
                    fill="#EAA971" />
                <path
                    d="M343 154.5C343 159.194 339.194 163 334.5 163C329.806 163 326 159.194 326 154.5C326 149.806 329.806 146 334.5 146C339.194 146 343 149.806 343 154.5Z"
                    fill="#EAA971" />
                <path
                    d="M382 154.5C382 159.194 378.194 163 373.5 163C368.806 163 365 159.194 365 154.5C365 149.806 368.806 146 373.5 146C378.194 146 382 149.806 382 154.5Z"
                    fill="#EAA971" />
                <path
                    d="M404 183.5C404 188.194 400.194 192 395.5 192C390.806 192 387 188.194 387 183.5C387 178.806 390.806 175 395.5 175C400.194 175 404 178.806 404 183.5Z"
                    fill="#EAA971" />
                <path
                    d="M368 177.5C368 182.194 364.194 186 359.5 186C354.806 186 351 182.194 351 177.5C351 172.806 354.806 169 359.5 169C364.194 169 368 172.806 368 177.5Z"
                    fill="#EAA971" />
                <path
                    d="M399 120.5C399 125.194 395.194 129 390.5 129C385.806 129 382 125.194 382 120.5C382 115.806 385.806 112 390.5 112C395.194 112 399 115.806 399 120.5Z"
                    fill="#EAA971" />
                <path
                    d="M421 154.5C421 159.194 417.194 163 412.5 163C407.806 163 404 159.194 404 154.5C404 149.806 407.806 146 412.5 146C417.194 146 421 149.806 421 154.5Z"
                    fill="#EAA971" />
                <path
                    d="M304 154.5C304 159.194 300.194 163 295.5 163C290.806 163 287 159.194 287 154.5C287 149.806 290.806 146 295.5 146C300.194 146 304 149.806 304 154.5Z"
                    fill="#EAA971" />
                <path
                    d="M98 257.5C98 262.194 94.1944 266 89.5 266C84.8056 266 81 262.194 81 257.5C81 252.806 84.8056 249 89.5 249C94.1944 249 98 252.806 98 257.5Z"
                    fill="#EAA971" />
                <path
                    d="M132 266.5C132 271.194 128.194 275 123.5 275C118.806 275 115 271.194 115 266.5C115 261.806 118.806 258 123.5 258C128.194 258 132 261.806 132 266.5Z"
                    fill="#EAA971" />
                <path
                    d="M98 320.5C98 325.194 94.1944 329 89.5 329C84.8056 329 81 325.194 81 320.5C81 315.806 84.8056 312 89.5 312C94.1944 312 98 315.806 98 320.5Z"
                    fill="#EAA971" />
                <path
                    d="M115 291.5C115 296.194 111.194 300 106.5 300C101.806 300 98 296.194 98 291.5C98 286.806 101.806 283 106.5 283C111.194 283 115 286.806 115 291.5Z"
                    fill="#EAA971" />
                <path
                    d="M154 291.5C154 296.194 150.194 300 145.5 300C140.806 300 137 296.194 137 291.5C137 286.806 140.806 283 145.5 283C150.194 283 154 286.806 154 291.5Z"
                    fill="#EAA971" />
                <path
                    d="M176 320.5C176 325.194 172.194 329 167.5 329C162.806 329 159 325.194 159 320.5C159 315.806 162.806 312 167.5 312C172.194 312 176 315.806 176 320.5Z"
                    fill="#EAA971" />
                <path
                    d="M140 314.5C140 319.194 136.194 323 131.5 323C126.806 323 123 319.194 123 314.5C123 309.806 126.806 306 131.5 306C136.194 306 140 309.806 140 314.5Z"
                    fill="#EAA971" />
                <path
                    d="M171 257.5C171 262.194 167.194 266 162.5 266C157.806 266 154 262.194 154 257.5C154 252.806 157.806 249 162.5 249C167.194 249 171 252.806 171 257.5Z"
                    fill="#EAA971" />
                <path
                    d="M193 291.5C193 296.194 189.194 300 184.5 300C179.806 300 176 296.194 176 291.5C176 286.806 179.806 283 184.5 283C189.194 283 193 286.806 193 291.5Z"
                    fill="#EAA971" />
                <path
                    d="M76 291.5C76 296.194 72.1944 300 67.5 300C62.8056 300 59 296.194 59 291.5C59 286.806 62.8056 283 67.5 283C72.1944 283 76 286.806 76 291.5Z"
                    fill="#EAA971" />
                <path
                    d="M-28 191.5C-28 196.194 -31.8056 200 -36.5 200C-41.1944 200 -45 196.194 -45 191.5C-45 186.806 -41.1944 183 -36.5 183C-31.8056 183 -28 186.806 -28 191.5Z"
                    fill="#EAA971" />
                <path
                    d="M5.99999 200.5C5.99999 205.194 2.19441 209 -2.50001 209C-7.19443 209 -11 205.194 -11 200.5C-11 195.806 -7.19443 192 -2.50001 192C2.19441 192 5.99999 195.806 5.99999 200.5Z"
                    fill="#EAA971" />
                <path
                    d="M-28 254.5C-28 259.194 -31.8056 263 -36.5 263C-41.1944 263 -45 259.194 -45 254.5C-45 249.806 -41.1944 246 -36.5 246C-31.8056 246 -28 249.806 -28 254.5Z"
                    fill="#EAA971" />
                <path
                    d="M-11 225.5C-11 230.194 -14.8056 234 -19.5 234C-24.1944 234 -28 230.194 -28 225.5C-28 220.806 -24.1944 217 -19.5 217C-14.8056 217 -11 220.806 -11 225.5Z"
                    fill="#EAA971" />
                <path
                    d="M28 225.5C28 230.194 24.1944 234 19.5 234C14.8056 234 11 230.194 11 225.5C11 220.806 14.8056 217 19.5 217C24.1944 217 28 220.806 28 225.5Z"
                    fill="#EAA971" />
                <path
                    d="M50 254.5C50 259.194 46.1944 263 41.5 263C36.8056 263 33 259.194 33 254.5C33 249.806 36.8056 246 41.5 246C46.1944 246 50 249.806 50 254.5Z"
                    fill="#EAA971" />
                <path
                    d="M14 248.5C14 253.194 10.1944 257 5.49999 257C0.805573 257 -3 253.194 -3 248.5C-3 243.806 0.805573 240 5.49999 240C10.1944 240 14 243.806 14 248.5Z"
                    fill="#EAA971" />
                <path
                    d="M45 191.5C45 196.194 41.1944 200 36.5 200C31.8056 200 28 196.194 28 191.5C28 186.806 31.8056 183 36.5 183C41.1944 183 45 186.806 45 191.5Z"
                    fill="#EAA971" />
                <path
                    d="M67 225.5C67 230.194 63.1944 234 58.5 234C53.8056 234 50 230.194 50 225.5C50 220.806 53.8056 217 58.5 217C63.1944 217 67 220.806 67 225.5Z"
                    fill="#EAA971" />
                <path
                    d="M-50 225.5C-50 230.194 -53.8056 234 -58.5 234C-63.1944 234 -67 230.194 -67 225.5C-67 220.806 -63.1944 217 -58.5 217C-53.8056 217 -50 220.806 -50 225.5Z"
                    fill="#EAA971" />
                <path
                    d="M36 -1.5C36 3.19442 32.1944 7 27.5 7C22.8056 7 19 3.19442 19 -1.5C19 -6.19442 22.8056 -10 27.5 -10C32.1944 -10 36 -6.19442 36 -1.5Z"
                    fill="#EAA971" />
                <path
                    d="M70 7.5C70 12.1944 66.1944 16 61.5 16C56.8056 16 53 12.1944 53 7.5C53 2.80558 56.8056 -1 61.5 -1C66.1944 -1 70 2.80558 70 7.5Z"
                    fill="#EAA971" />
                <path
                    d="M36 61.5C36 66.1944 32.1944 70 27.5 70C22.8056 70 19 66.1944 19 61.5C19 56.8056 22.8056 53 27.5 53C32.1944 53 36 56.8056 36 61.5Z"
                    fill="#EAA971" />
                <path
                    d="M53 32.5C53 37.1944 49.1944 41 44.5 41C39.8056 41 36 37.1944 36 32.5C36 27.8056 39.8056 24 44.5 24C49.1944 24 53 27.8056 53 32.5Z"
                    fill="#EAA971" />
                <path
                    d="M92 32.5C92 37.1944 88.1944 41 83.5 41C78.8056 41 75 37.1944 75 32.5C75 27.8056 78.8056 24 83.5 24C88.1944 24 92 27.8056 92 32.5Z"
                    fill="#EAA971" />
                <path
                    d="M114 61.5C114 66.1944 110.194 70 105.5 70C100.806 70 97 66.1944 97 61.5C97 56.8056 100.806 53 105.5 53C110.194 53 114 56.8056 114 61.5Z"
                    fill="#EAA971" />
                <path
                    d="M78 55.5C78 60.1944 74.1944 64 69.5 64C64.8056 64 61 60.1944 61 55.5C61 50.8056 64.8056 47 69.5 47C74.1944 47 78 50.8056 78 55.5Z"
                    fill="#EAA971" />
                <path
                    d="M109 -1.5C109 3.19442 105.194 7 100.5 7C95.8056 7 92 3.19442 92 -1.5C92 -6.19442 95.8056 -10 100.5 -10C105.194 -10 109 -6.19442 109 -1.5Z"
                    fill="#EAA971" />
                <path
                    d="M131 32.5C131 37.1944 127.194 41 122.5 41C117.806 41 114 37.1944 114 32.5C114 27.8056 117.806 24 122.5 24C127.194 24 131 27.8056 131 32.5Z"
                    fill="#EAA971" />
                <path
                    d="M14 32.5C14 37.1944 10.1944 41 5.5 41C0.80558 41 -3 37.1944 -3 32.5C-3 27.8056 0.80558 24 5.5 24C10.1944 24 14 27.8056 14 32.5Z"
                    fill="#EAA971" />
                <path
                    d="M317 251.5C317 290.436 285.436 322 246.5 322C207.564 322 176 290.436 176 251.5C176 212.564 207.564 181 246.5 181C285.436 181 317 212.564 317 251.5Z"
                    fill="#DED083" />
            </svg>