<svg width="103" height="137" viewBox="0 0 103 137" fill="none" xmlns="http://www.w3.org/2000/svg">
<path d="M15 0H32C43.0457 0 52 8.95431 52 20H35C23.9543 20 15 11.0457 15 0Z" fill="#49896E"/>
<path d="M48 20C48 18.3431 49.3431 17 51 17H52C53.6569 17 55 18.3431 55 20V88C55 89.6569 53.6569 91 52 91H51C49.3431 91 48 89.6569 48 88V20Z" fill="#6B4F4F"/>
<path d="M0 136.5C0 120.189 5.42588 104.546 15.084 93.0129C24.7421 81.4794 37.8413 75 51.5 75C65.1586 75 78.2579 81.4794 87.916 93.0129C97.5741 104.546 103 120.189 103 136.5L0 136.5Z" fill="#B59568"/>
<path d="M0 136.5C0 120.189 5.42588 104.546 15.084 93.0129C24.7421 81.4794 37.8413 75 51.5 75C65.1586 75 78.2579 81.4794 87.916 93.0129C97.5741 104.546 103 120.189 103 136.5L0 136.5Z" fill="#B59568"/>
<path d="M55 54H72C83.0457 54 92 62.9543 92 74H75C63.9543 74 55 65.0457 55 54Z" fill="#49896E"/>
<path d="M92 20H75C63.9543 20 55 28.9543 55 40H72C83.0457 40 92 31.0457 92 20Z" fill="#49896E"/>
</svg>
