<svg width="214" height="230" viewBox="0 0 214 230" fill="none" xmlns="http://www.w3.org/2000/svg">
<path d="M41.1907 46.9505C34.1795 32.8692 56.148 26.2686 67.5996 40.3499C79.0513 54.4312 86.7636 76.2133 93.0737 89.4145C99.3838 102.616 148.462 7.3468 167.159 1.40624C185.855 -4.53431 195.437 9.547 190.296 21.2081C185.154 32.8692 119.716 138.259 93.0737 137.599C66.4311 136.939 48.2019 61.0318 41.1907 46.9505Z" fill="#6DA359"/>
<path d="M24.1294 204.522H39.5272V207.442H24.1294V204.522ZM22.3925 188.51H39.1516V191.713H25.6316V229.717H22.3925V188.51ZM37.4616 188.51H40.7477V197.6C40.7477 198.479 40.6225 199.169 40.3722 199.672C40.1531 200.174 39.6837 200.566 38.9638 200.849C38.244 201.1 37.2738 201.257 36.0533 201.32C34.864 201.351 33.3462 201.367 31.4997 201.367C31.4371 200.896 31.2963 200.378 31.0772 199.813C30.8894 199.216 30.6703 198.698 30.42 198.259C31.4214 198.29 32.329 198.322 33.1427 198.353C33.9877 198.353 34.7075 198.353 35.3022 198.353C35.8968 198.353 36.3037 198.337 36.5227 198.306C36.9296 198.275 37.18 198.212 37.2738 198.118C37.399 198.023 37.4616 197.851 37.4616 197.6V188.51ZM28.73 206.453C29.575 209.404 30.7173 212.214 32.1569 214.883C33.5965 217.52 35.2709 219.875 37.18 221.947C39.1203 224.019 41.2798 225.636 43.6583 226.798C43.2514 227.112 42.8133 227.551 42.3438 228.116C41.8744 228.713 41.4988 229.231 41.2172 229.67C38.8074 228.289 36.6166 226.468 34.645 224.207C32.7046 221.947 30.9989 219.357 29.528 216.437C28.0884 213.517 26.8991 210.44 25.9602 207.207L28.73 206.453ZM38.4475 204.522H39.0577L39.668 204.381L41.8744 205.182C41.2485 208.572 40.3096 211.822 39.0577 214.93C37.8372 218.038 36.288 220.864 34.4102 223.407C32.5638 225.919 30.3887 228.038 27.885 229.765C27.6033 229.356 27.2277 228.917 26.7583 228.446C26.3202 228.006 25.8977 227.645 25.4908 227.363C27.8693 225.793 29.9349 223.846 31.6875 221.523C33.4401 219.168 34.8797 216.594 36.0063 213.8C37.1643 211.006 37.978 208.18 38.4475 205.323V204.522ZM1.64305 191.195H19.0594V194.209H1.64305V191.195ZM1.12666 216.908H19.6697V219.969H1.12666V216.908ZM0 198.965H20.8903V202.026H0V198.965ZM0.657221 208.714H20.28V211.775H0.657221V208.714ZM8.87249 186.391H12.1586V200.048H8.87249V186.391ZM8.87249 210.032H12.1586V229.576H8.87249V210.032ZM15.21 201.838L18.2614 202.591C17.7919 203.722 17.3225 204.868 16.853 206.029C16.4149 207.16 15.9611 208.133 15.4916 208.949L12.9097 208.196C13.1601 207.599 13.4261 206.924 13.7078 206.171C14.0207 205.417 14.3024 204.664 14.5528 203.91C14.8344 203.125 15.0535 202.434 15.21 201.838ZM3.23916 202.591L5.91499 201.885C6.47833 202.89 6.96342 203.989 7.37027 205.182C7.77712 206.375 8.02749 207.379 8.12138 208.196L5.30472 209.043C5.21083 208.196 4.96046 207.175 4.55361 205.982C4.17805 204.758 3.7399 203.628 3.23916 202.591Z" fill="#6B4F4F"/>
<path d="M47.3669 189.405H71.4493V192.655H47.3669V189.405ZM48.7283 211.869H70.088V215.071H48.7283V211.869ZM57.6946 206.218H61.1685V224.678L57.6946 225.196V206.218ZM46.8505 224.726C48.8848 224.474 51.232 224.192 53.8922 223.878C56.5836 223.532 59.4472 223.156 62.483 222.748C65.5187 222.339 68.5388 221.931 71.5432 221.523L71.6371 224.82C68.7266 225.228 65.8004 225.636 62.8585 226.044C59.948 226.484 57.1626 226.876 54.5024 227.221C51.8422 227.598 49.4637 227.944 47.3669 228.258L46.8505 224.726ZM47.226 202.215C49.0099 202.152 51.0755 202.073 53.4227 201.979C55.7699 201.885 58.2736 201.775 60.9338 201.65C63.594 201.524 66.2542 201.383 68.9144 201.226L68.8674 204.334C66.3011 204.491 63.7348 204.648 61.1685 204.805C58.6022 204.962 56.1611 205.103 53.8452 205.229C51.5293 205.354 49.4168 205.464 47.5077 205.558L47.226 202.215ZM62.2013 196.516L64.8771 195.056C65.816 196.124 66.7706 197.301 67.7407 198.588C68.7109 199.876 69.6029 201.132 70.4166 202.356C71.2616 203.58 71.9031 204.664 72.3413 205.605L69.5716 207.301C69.1334 206.328 68.5075 205.213 67.6938 203.957C66.9114 202.701 66.0351 201.43 65.0649 200.143C64.126 198.824 63.1715 197.615 62.2013 196.516ZM55.4413 191.148L59.2908 191.901C58.7587 193.283 58.1797 194.742 57.5538 196.281C56.9279 197.788 56.302 199.263 55.676 200.708C55.0501 202.121 54.4398 203.376 53.8452 204.475L50.7938 203.675C51.3572 202.576 51.9205 201.289 52.4838 199.813C53.0784 198.306 53.6418 196.799 54.1738 195.292C54.7059 193.754 55.1284 192.372 55.4413 191.148ZM73.468 191.995H76.8949V218.132H73.468V191.995ZM84.5938 187.663H88.0207V224.914C88.0207 226.138 87.8642 227.049 87.5513 227.645C87.2383 228.273 86.7063 228.728 85.9552 229.011C85.1728 229.294 84.0774 229.466 82.6691 229.529C81.292 229.623 79.649 229.67 77.7399 229.67C77.646 229.199 77.4739 228.603 77.2235 227.881C77.0044 227.159 76.7541 226.531 76.4724 225.997C78.0685 226.028 79.5238 226.044 80.8382 226.044C82.1527 226.044 83.0446 226.044 83.5141 226.044C83.9522 226.013 84.2339 225.919 84.3591 225.762C84.5155 225.605 84.5938 225.322 84.5938 224.914V187.663Z" fill="#6B4F4F"/>
<path d="M99.9446 204.004H111.587V207.301H99.9446V204.004ZM110.225 204.004H113.652C113.652 204.004 113.652 204.098 113.652 204.287C113.652 204.444 113.637 204.648 113.605 204.899C113.605 205.15 113.605 205.354 113.605 205.511C113.543 209.028 113.449 211.885 113.324 214.082C113.23 216.249 113.089 217.897 112.901 219.027C112.745 220.157 112.494 220.942 112.15 221.382C111.775 221.821 111.368 222.135 110.93 222.324C110.523 222.512 109.991 222.653 109.333 222.748C108.708 222.81 107.894 222.842 106.892 222.842C105.891 222.81 104.811 222.763 103.653 222.7C103.622 222.198 103.512 221.649 103.325 221.052C103.168 220.424 102.949 219.875 102.667 219.404C103.731 219.529 104.733 219.608 105.672 219.639C106.611 219.639 107.268 219.639 107.643 219.639C107.988 219.639 108.269 219.608 108.488 219.545C108.739 219.482 108.958 219.341 109.146 219.121C109.365 218.839 109.537 218.211 109.662 217.238C109.819 216.233 109.928 214.726 109.991 212.717C110.085 210.676 110.163 207.96 110.225 204.569V204.004ZM123.417 188.699L125.529 186.532C126.531 187.003 127.564 187.569 128.628 188.228C129.723 188.856 130.74 189.499 131.679 190.159C132.618 190.787 133.4 191.367 134.026 191.901L131.82 194.35C131.225 193.785 130.458 193.173 129.52 192.513C128.581 191.823 127.579 191.148 126.515 190.488C125.451 189.829 124.418 189.233 123.417 188.699ZM130.177 201.461L133.698 202.356C131.695 208.51 128.956 213.847 125.482 218.368C122.008 222.889 117.877 226.578 113.089 229.435C112.901 229.184 112.651 228.87 112.338 228.493C112.025 228.148 111.696 227.787 111.352 227.41C111.039 227.064 110.757 226.766 110.507 226.515C115.264 224.003 119.286 220.628 122.572 216.39C125.858 212.12 128.393 207.144 130.177 201.461ZM100.226 194.35H136.561V197.788H100.226V194.35ZM97.926 194.35H101.588V207.63C101.588 209.294 101.525 211.1 101.4 213.046C101.275 214.993 101.04 216.971 100.696 218.98C100.351 220.989 99.8507 222.952 99.1935 224.867C98.5363 226.751 97.66 228.462 96.5646 230C96.3768 229.749 96.0952 229.466 95.7196 229.152C95.3753 228.838 94.9998 228.54 94.5929 228.258C94.2174 227.975 93.8888 227.771 93.6071 227.645C94.9215 225.699 95.8761 223.564 96.4707 221.241C97.0966 218.917 97.4878 216.578 97.6443 214.224C97.8321 211.838 97.926 209.624 97.926 207.583V194.35ZM117.455 186.391H121.117C121.085 190.755 121.242 194.899 121.586 198.824C121.93 202.748 122.415 206.359 123.041 209.655C123.667 212.921 124.418 215.762 125.295 218.179C126.202 220.566 127.188 222.418 128.252 223.737C129.347 225.055 130.49 225.714 131.679 225.714C132.368 225.714 132.868 225.055 133.181 223.737C133.525 222.387 133.76 220.142 133.885 217.002C134.292 217.379 134.777 217.756 135.341 218.132C135.935 218.509 136.467 218.776 136.937 218.933C136.718 221.633 136.405 223.737 135.998 225.244C135.622 226.751 135.059 227.802 134.308 228.399C133.588 229.027 132.618 229.341 131.397 229.341C129.833 229.341 128.393 228.807 127.078 227.74C125.764 226.672 124.59 225.165 123.558 223.218C122.556 221.272 121.68 218.98 120.929 216.343C120.178 213.674 119.536 210.739 119.004 207.536C118.503 204.334 118.128 200.959 117.877 197.411C117.627 193.832 117.486 190.159 117.455 186.391Z" fill="#6B4F4F"/>
<path d="M141.256 191.901H158.531V195.292H141.256V191.901ZM158.86 197.129H181.205V200.519H158.86V197.129ZM148.203 193.22H151.677V216.814H148.203V193.22ZM179.562 197.129H182.989C182.989 197.129 182.989 197.238 182.989 197.458C182.989 197.678 182.989 197.929 182.989 198.212C182.989 198.494 182.989 198.714 182.989 198.871C182.801 203.737 182.614 207.866 182.426 211.257C182.238 214.647 182.019 217.426 181.769 219.592C181.518 221.759 181.237 223.454 180.924 224.678C180.611 225.903 180.235 226.782 179.797 227.316C179.296 227.975 178.764 228.43 178.201 228.681C177.638 228.933 176.949 229.09 176.135 229.152C175.384 229.215 174.383 229.247 173.131 229.247C171.879 229.247 170.58 229.199 169.234 229.105C169.203 228.603 169.094 228.006 168.906 227.316C168.718 226.656 168.452 226.091 168.108 225.62C169.579 225.746 170.909 225.824 172.098 225.856C173.319 225.887 174.179 225.903 174.68 225.903C175.181 225.903 175.572 225.856 175.854 225.762C176.135 225.667 176.401 225.463 176.652 225.149C177.027 224.741 177.356 223.972 177.638 222.842C177.919 221.712 178.17 220.079 178.389 217.944C178.608 215.809 178.811 213.109 178.999 209.844C179.187 206.547 179.374 202.56 179.562 197.882V197.129ZM140.645 217.332C142.179 216.986 143.963 216.563 145.997 216.06C148.031 215.527 150.175 214.961 152.428 214.365C154.682 213.737 156.951 213.109 159.235 212.481L159.658 215.825C156.497 216.735 153.305 217.646 150.081 218.556C146.889 219.467 144.025 220.267 141.49 220.958L140.645 217.332ZM166.887 187.098H170.408C170.377 190.74 170.299 194.287 170.173 197.741C170.079 201.194 169.798 204.491 169.328 207.63C168.89 210.77 168.155 213.721 167.122 216.484C166.121 219.216 164.697 221.696 162.85 223.925C161.035 226.154 158.688 228.085 155.808 229.717C155.652 229.403 155.433 229.074 155.151 228.728C154.87 228.383 154.557 228.038 154.212 227.692C153.899 227.378 153.586 227.127 153.273 226.939C156.027 225.463 158.265 223.689 159.986 221.617C161.708 219.545 163.038 217.238 163.977 214.695C164.947 212.151 165.62 209.404 165.995 206.453C166.402 203.502 166.637 200.409 166.7 197.176C166.793 193.91 166.856 190.551 166.887 187.098Z" fill="#6B4F4F"/>
<path d="M209.301 225.903V221.189H214V225.903H209.301ZM209.301 216.429V192.928H214V216.429H209.301Z" fill="#6DA359"/>
</svg>
